<svg width="40" height="40" viewBox="0 0 40 40" fill="none" xmlns="http://www.w3.org/2000/svg">
<path d="M0 12C0 5.37258 5.37258 0 12 0H28C34.6274 0 40 5.37258 40 12V28C40 34.6274 34.6274 40 28 40H12C5.37258 40 0 34.6274 0 28V12Z" fill="#204FC6"/>
<path d="M13.3335 21.1121L20.0002 30.7417L26.6668 21.1121L20.0002 10L13.3335 21.1121ZM20.0002 27.383L17.1949 23.3276L20.0002 24.5787L22.8054 23.3276L20.0002 27.383ZM20.0002 22.4865L15.8453 20.6399L20.0002 13.7161L24.155 20.6399L20.0002 22.4865Z" fill="white"/>
</svg>
