<svg width="40" height="40" viewBox="0 0 40 40" fill="none" xmlns="http://www.w3.org/2000/svg">
<path d="M0 12C0 5.37258 5.37258 0 12 0H28C34.6274 0 40 5.37258 40 12V28C40 34.6274 34.6274 40 28 40H12C5.37258 40 0 34.6274 0 28V12Z" fill="#EC8F22"/>
<path d="M24.2912 18.5945C25.3659 17.9887 25.9467 16.7761 25.7465 15.5597C25.4977 13.6816 23.2589 12.9726 21.4927 12.8234V10H19.7514V12.7985H18.5823V10H16.841V12.7985H13.3335V14.602H14.6395C15.2241 14.602 15.5101 14.7761 15.5101 15.2487V22.9975C15.5101 23.6442 15.1867 23.8433 14.8385 23.8433H13.5076V25.6841H16.8907V28.5448H18.6444V25.6841H19.8136V28.5448H21.5176V25.6841H21.8907C25.4728 25.6841 26.6668 23.9304 26.6668 21.5423C26.6382 20.1343 25.6618 18.9229 24.2912 18.5945ZM18.5822 14.7139H19.826C20.6966 14.7139 22.4131 14.8632 22.4131 16.2811C22.4728 17.2065 21.8024 18.0174 20.8832 18.1343H18.5822V14.7139ZM20.5101 23.6691V23.6567H18.5822V19.9253H20.8211C21.3435 19.9253 23.3086 20.0995 23.3086 21.4925C23.3086 22.8855 22.3758 23.6691 20.5101 23.6691Z" fill="white"/>
</svg>
