<svg width="40" height="40" viewBox="0 0 40 40" fill="none" xmlns="http://www.w3.org/2000/svg">
<path d="M0 12C0 5.37258 5.37258 0 12 0H28C34.6274 0 40 5.37258 40 12V28C40 34.6274 34.6274 40 28 40H12C5.37258 40 0 34.6274 0 28V12Z" fill="#1EA755"/>
<g clip-path="url(#clip0)">
<path fill-rule="evenodd" clip-rule="evenodd" d="M19.9002 12.2524L15.8728 14.5287L17.3535 15.3696L19.9002 13.9343L22.447 15.3696L23.9277 14.5287L19.9002 12.2524ZM22.447 16.5585L23.9277 17.3994V19.0812L21.3809 20.5165V23.3872L19.9002 24.2281L18.4196 23.3872V20.5165L15.8728 19.0812V17.3994L17.3535 16.5585L19.9002 17.9938L22.447 16.5585ZM23.9277 20.2701V21.9519L22.447 22.7928V21.1109L23.9277 20.2701ZM22.4322 23.9816L24.979 22.5463V19.6756L26.4596 18.8347V23.3872L22.4322 25.6634V23.9816ZM24.979 16.8049L23.4983 15.964L24.979 15.1231L26.4596 15.964V17.6458L24.979 18.4868V16.8049ZM18.4196 26.2724V24.5906L19.9002 25.4315L21.3809 24.5906V26.2724L19.9002 27.1133L18.4196 26.2724ZM17.3535 22.7928L15.8728 21.9519V20.2701L17.3535 21.1109V22.7928ZM19.9002 16.8049L18.4196 15.964L19.9002 15.1231L21.3809 15.964L19.9002 16.8049ZM16.3022 15.964L14.8215 16.8049V18.4868L13.3408 17.6458V15.964L14.8215 15.1231L16.3022 15.964ZM13.3408 18.8347L14.8215 19.6756V22.5463L17.3683 23.9816V25.6634L13.3408 23.3872V18.8347Z" fill="white"/>
</g>
<defs>
<clipPath id="clip0">
<rect width="13.3333" height="15.5556" fill="white" transform="translate(13.3335 11.6665)"/>
</clipPath>
</defs>
</svg>
