<svg width="40" height="40" viewBox="0 0 40 40" fill="none" xmlns="http://www.w3.org/2000/svg">
<path d="M0 12C0 5.37258 5.37258 0 12 0H28C34.6274 0 40 5.37258 40 12V28C40 34.6274 34.6274 40 28 40H12C5.37258 40 0 34.6274 0 28V12Z" fill="#C84959"/>
<path d="M12.1051 21.3159C11.8639 21.3159 11.6665 21.5133 11.6665 21.7545C11.6665 21.9957 11.8639 22.1931 12.1051 22.1931C12.3464 22.1931 12.5437 21.9957 12.5437 21.7545C12.5437 21.5133 12.3463 21.3159 12.1051 21.3159Z" fill="white"/>
<path d="M12.1051 17.8064C11.8639 17.8064 11.6665 18.0038 11.6665 18.245C11.6665 18.4862 11.8639 18.6836 12.1051 18.6836C12.3464 18.6836 12.5437 18.4862 12.5437 18.245C12.5437 18.0038 12.3463 17.8064 12.1051 17.8064Z" fill="white"/>
<path d="M18.2452 27.4553C18.004 27.4553 17.8066 27.6527 17.8066 27.8939C17.8066 28.1352 18.004 28.3325 18.2452 28.3325C18.4865 28.3325 18.6839 28.1352 18.6839 27.8939C18.6839 27.6527 18.4865 27.4553 18.2452 27.4553Z" fill="white"/>
<path d="M14.7366 13.8606C14.2541 13.8606 13.8594 14.2553 13.8594 14.7378C13.8594 15.2202 14.2541 15.615 14.7366 15.615C15.219 15.615 15.6137 15.2203 15.6137 14.7378C15.6137 14.2554 15.219 13.8606 14.7366 13.8606Z" fill="white"/>
<path d="M14.7366 17.3689C14.2541 17.3689 13.8594 17.7636 13.8594 18.2461C13.8594 18.7285 14.2541 19.1232 14.7366 19.1232C15.219 19.1232 15.6137 18.7285 15.6137 18.2461C15.6137 17.7636 15.219 17.3689 14.7366 17.3689Z" fill="white"/>
<path d="M14.7366 20.8772C14.2541 20.8772 13.8594 21.2719 13.8594 21.7544C13.8594 22.2368 14.2541 22.6315 14.7366 22.6315C15.219 22.6315 15.6137 22.2369 15.6137 21.7544C15.6137 21.2719 15.219 20.8772 14.7366 20.8772Z" fill="white"/>
<path d="M27.8947 18.6836C28.1359 18.6836 28.3333 18.4862 28.3333 18.245C28.3333 18.0038 28.1359 17.8064 27.8947 17.8064C27.6534 17.8064 27.4561 18.0038 27.4561 18.245C27.4561 18.4862 27.6534 18.6836 27.8947 18.6836Z" fill="white"/>
<path d="M21.7545 12.5439C21.9958 12.5439 22.1931 12.3466 22.1931 12.1053C22.1931 11.8641 21.9958 11.6667 21.7545 11.6667C21.5133 11.6667 21.3159 11.8641 21.3159 12.1054C21.316 12.3466 21.5133 12.5439 21.7545 12.5439Z" fill="white"/>
<path d="M18.2453 15.6149C18.7278 15.6149 19.1225 15.2202 19.1225 14.7378C19.1225 14.2553 18.7278 13.8606 18.2453 13.8606C17.7629 13.8606 17.3682 14.2553 17.3682 14.7378C17.3682 15.2202 17.7629 15.6149 18.2453 15.6149Z" fill="white"/>
<path d="M18.2452 12.5439C18.4865 12.5439 18.6839 12.3466 18.6839 12.1053C18.6839 11.8641 18.4865 11.6667 18.2452 11.6667C18.004 11.6667 17.8066 11.8641 17.8066 12.1054C17.8066 12.3466 18.004 12.5439 18.2452 12.5439Z" fill="white"/>
<path d="M21.7541 15.6149C22.2366 15.6149 22.6313 15.2202 22.6313 14.7378C22.6313 14.2553 22.2366 13.8606 21.7541 13.8606C21.2717 13.8606 20.877 14.2553 20.877 14.7378C20.877 15.2202 21.2717 15.6149 21.7541 15.6149Z" fill="white"/>
<path d="M14.7366 24.3855C14.2541 24.3855 13.8594 24.7802 13.8594 25.2627C13.8594 25.7451 14.2541 26.1398 14.7366 26.1398C15.219 26.1398 15.6137 25.7452 15.6137 25.2627C15.6137 24.7802 15.219 24.3855 14.7366 24.3855Z" fill="white"/>
<path d="M21.7543 16.9304C21.0262 16.9304 20.4385 17.5181 20.4385 18.2462C20.4385 18.9743 21.0262 19.562 21.7543 19.562C22.4823 19.562 23.07 18.9743 23.07 18.2462C23.07 17.5181 22.4823 16.9304 21.7543 16.9304Z" fill="white"/>
<path d="M25.2629 20.8772C24.7805 20.8772 24.3857 21.2719 24.3857 21.7544C24.3857 22.2368 24.7805 22.6315 25.2629 22.6315C25.7454 22.6315 26.1401 22.2368 26.1401 21.7544C26.1401 21.2719 25.7454 20.8772 25.2629 20.8772Z" fill="white"/>
<path d="M25.2629 24.3855C24.7805 24.3855 24.3857 24.7802 24.3857 25.2627C24.3857 25.7451 24.7805 26.1398 25.2629 26.1398C25.7454 26.1399 26.1401 25.7452 26.1401 25.2627C26.1401 24.7802 25.7454 24.3855 25.2629 24.3855Z" fill="white"/>
<path d="M25.2629 17.3689C24.7805 17.3689 24.3857 17.7636 24.3857 18.2461C24.3857 18.7285 24.7805 19.1232 25.2629 19.1232C25.7454 19.1232 26.1401 18.7285 26.1401 18.2461C26.1401 17.7636 25.7454 17.3689 25.2629 17.3689Z" fill="white"/>
<path d="M27.8947 21.3159C27.6534 21.3159 27.4561 21.5133 27.4561 21.7545C27.4561 21.9957 27.6534 22.1931 27.8947 22.1931C28.1359 22.1931 28.3333 21.9957 28.3333 21.7545C28.3332 21.5133 28.1359 21.3159 27.8947 21.3159Z" fill="white"/>
<path d="M25.2629 13.8606C24.7805 13.8606 24.3857 14.2553 24.3857 14.7378C24.3857 15.2202 24.7804 15.615 25.2629 15.615C25.7454 15.615 26.1401 15.2203 26.1401 14.7378C26.1401 14.2554 25.7454 13.8606 25.2629 13.8606Z" fill="white"/>
<path d="M18.2455 20.4377C17.5174 20.4377 16.9297 21.0254 16.9297 21.7535C16.9297 22.4816 17.5174 23.0693 18.2455 23.0693C18.9736 23.0693 19.5613 22.4816 19.5613 21.7535C19.5613 21.0254 18.9736 20.4377 18.2455 20.4377Z" fill="white"/>
<path d="M18.2453 24.3855C17.7629 24.3855 17.3682 24.7802 17.3682 25.2627C17.3682 25.7451 17.7629 26.1398 18.2453 26.1398C18.7278 26.1398 19.1225 25.7451 19.1225 25.2627C19.1225 24.7802 18.7278 24.3855 18.2453 24.3855Z" fill="white"/>
<path d="M18.2455 16.9304C17.5174 16.9304 16.9297 17.5181 16.9297 18.2462C16.9297 18.9743 17.5174 19.562 18.2455 19.562C18.9736 19.562 19.5613 18.9743 19.5613 18.2462C19.5613 17.5181 18.9736 16.9304 18.2455 16.9304Z" fill="white"/>
<path d="M21.7541 24.3855C21.2717 24.3855 20.877 24.7802 20.877 25.2627C20.877 25.7452 21.2717 26.1399 21.7541 26.1399C22.2366 26.1399 22.6313 25.7452 22.6313 25.2627C22.6313 24.7802 22.2366 24.3855 21.7541 24.3855Z" fill="white"/>
<path d="M21.7545 27.4553C21.5133 27.4553 21.3159 27.6527 21.3159 27.8939C21.3159 28.1352 21.5133 28.3325 21.7545 28.3325C21.9958 28.3325 22.1931 28.1352 22.1931 27.8939C22.1931 27.6527 21.9958 27.4553 21.7545 27.4553Z" fill="white"/>
<path d="M21.7543 20.4377C21.0262 20.4377 20.4385 21.0254 20.4385 21.7535C20.4385 22.4816 21.0262 23.0693 21.7543 23.0693C22.4823 23.0693 23.07 22.4816 23.07 21.7535C23.07 21.0254 22.4823 20.4377 21.7543 20.4377Z" fill="white"/>
</svg>
