<svg width="48" height="48" viewBox="0 0 48 48" fill="none" xmlns="http://www.w3.org/2000/svg">
<path fill-rule="evenodd" clip-rule="evenodd" d="M22.9565 4.25261H25.0435C35.4168 4.25261 43.8261 12.8204 43.8261 23.3893C43.8261 33.9583 35.4168 42.5261 25.0435 42.5261H22.9565C12.5832 42.5261 4.17391 33.9583 4.17391 23.3893C4.17391 12.8204 12.5832 4.25261 22.9565 4.25261ZM25.0435 0C37.722 0 48 10.4718 48 23.3893C48 36.3069 37.722 46.7787 25.0435 46.7787H22.9565C10.278 46.7787 0 36.3069 0 23.3893C0 10.4718 10.278 0 22.9565 0H25.0435Z" fill="url(#paint0_linear)"/>
<path d="M8.36795 39.141C8.31566 39.0931 8.23392 39.1273 8.24065 39.1979L8.98815 47.0389C9.05467 47.7367 9.75435 48.179 10.3976 47.9299L16.909 45.4075C17.3487 45.2372 17.6222 44.7881 17.5767 44.311C17.562 44.1563 17.4578 44.0246 17.3106 43.9746L11.8618 42.1241C11.6097 42.0385 11.3782 41.9013 11.1819 41.7214L8.36795 39.141Z" fill="url(#paint1_linear)"/>
<defs>
<linearGradient id="paint0_linear" x1="0" y1="0" x2="48" y2="48" gradientUnits="userSpaceOnUse">
<stop stop-color="#4196FF"/>
<stop offset="1" stop-color="#0669FF"/>
</linearGradient>
<linearGradient id="paint1_linear" x1="0" y1="0" x2="48" y2="48" gradientUnits="userSpaceOnUse">
<stop stop-color="#4196FF"/>
<stop offset="1" stop-color="#0669FF"/>
</linearGradient>
</defs>
</svg>
